<?xml version="1.0" standalone="no"?><!DOCTYPE svg PUBLIC "-//W3C//DTD SVG 1.1//EN" "http://www.w3.org/Graphics/SVG/1.1/DTD/svg11.dtd"><svg t="1651802809066" class="icon" viewBox="0 0 1024 1024" version="1.1" xmlns="http://www.w3.org/2000/svg" p-id="2052" xmlns:xlink="http://www.w3.org/1999/xlink" width="200" height="200"><defs><style type="text/css">@font-face { font-family: feedback-iconfont; src: url("//at.alicdn.com/t/font_1031158_u69w8yhxdu.woff2?t=1630033759944") format("woff2"), url("//at.alicdn.com/t/font_1031158_u69w8yhxdu.woff?t=1630033759944") format("woff"), url("//at.alicdn.com/t/font_1031158_u69w8yhxdu.ttf?t=1630033759944") format("truetype"); }
</style></defs><path d="M512 267.2c-264.992 0-480 217.28-480 484.64a15.936 15.936 0 1 0 31.872 0C63.872 501.568 264.416 299.2 512 299.2c30.944 0 61.152 3.168 90.304 9.184 29.152 6.016 57.28 14.88 84.064 26.304a15.936 15.936 0 1 0 12.48-29.312A477.696 477.696 0 0 0 512 267.232z m259.52 79.968a15.936 15.936 0 0 0-9.024 29.248 453.728 453.728 0 0 1 188.48 284.128c5.984 29.472 9.152 60.032 9.152 91.296a15.936 15.936 0 1 0 31.872 0c0-33.408-3.36-66.08-9.76-97.6a484.256 484.256 0 0 0-130.816-245.024 482.56 482.56 0 0 0-70.976-59.2 15.936 15.936 0 0 0-8.96-2.88z" fill="#2B4255" p-id="2053"></path><path d="M512.384 703.776A64.576 64.576 0 0 0 448 768.096h32c0-18.048 14.336-32.32 32.384-32.32 18.048 0 32.32 14.272 32.32 32.32h32c0-35.328-28.992-64.32-64.32-64.32z" fill="#F05542" p-id="2054"></path><path d="M512.96 478.176a16 16 0 0 0-14.72 13.664l-32.192 225.632a16 16 0 0 0 31.68 4.576l16.384-114.688 0.256 1.888 8.064 56.352 8.064 56.448a16 16 0 0 0 12.448 13.312 16 16 0 0 0 1.6 0.32 16 16 0 0 0 1.344 0 16 16 0 0 0 0.224 0 16 16 0 0 0 0.256 0 16 16 0 0 0 15.456-20.992l-7.68-53.632-8.096-56.448-8.064-56.352-8.032-56.448a16 16 0 0 0-17.024-13.696z" fill="#F05542" p-id="2055"></path><path d="M95.264 736v32h64.48v-32H95.264z m18.432-89.024l-8.32 30.944 62.304 16.672 8.256-30.912-62.24-16.704z m45.664-99.52l-16 27.776 55.904 32.256 16-27.744-55.904-32.256z m69.952-84.416l-22.624 22.624 45.568 45.568 22.624-22.624-45.568-45.568z m89.312-63.68l-27.68 16 32.192 55.872 27.744-16-32.256-55.872z m102.688-40.128l-30.944 8.32 16.704 62.24 30.944-8.32-16.704-62.24z m76.992-10.112v64.416h32V349.12h-32z m109.024 10.112l-16.704 62.24 30.88 8.32 16.672-62.24-30.848-8.32z m102.624 39.008l-32.256 55.808 27.744 16 32.256-55.808-27.744-16z m89.28 62.72l-45.536 45.632 22.624 22.624 45.568-45.536-22.624-22.72z m69.952 83.136l-55.808 32.256 16 27.68 55.808-32.192-16-27.744z m45.696 95.456l-62.24 16.672 8.32 30.944 62.24-16.672-8.32-30.944z m-46.016 96.416v32h64.448v-32h-64.448z" fill="#2B4255" p-id="2056"></path></svg>